<svg width="58" height="63" viewBox="0 0 58 63" fill="none" xmlns="http://www.w3.org/2000/svg">
<path d="M50.2026 39.9747H50.1993C51.71 38.2897 52.4994 35.7878 52.4994 33.3719C52.4994 31.5816 51.7882 29.8647 50.5223 28.5988C49.2564 27.3329 47.5395 26.6217 45.7492 26.6217C43.9589 26.6217 42.242 27.3329 40.9761 28.5988C39.7102 29.8647 38.999 31.5816 38.999 33.3719C38.999 35.3035 39.5619 37.3709 40.5048 38.9014C40.7376 39.2812 41.0025 39.6403 41.2967 39.9747H41.2921C39.721 39.9714 38.1892 40.4653 36.9158 41.3856C36.3426 41.2904 35.7626 41.2423 35.1815 41.2416H34.0482C34.7498 40.6098 35.3601 39.8834 35.8615 39.0834C37.2618 36.8836 38.0649 33.99 38.0649 31.1448C38.0694 29.91 37.8301 28.6864 37.3607 27.5443C36.8913 26.4021 36.201 25.3639 35.3295 24.4891C34.458 23.6144 33.4223 22.9203 32.2819 22.4467C31.1415 21.9731 29.9188 21.7293 28.684 21.7293C27.4492 21.7293 26.2265 21.9731 25.0861 22.4467C23.9457 22.9203 22.91 23.6144 22.0385 24.4891C21.1669 25.3639 20.4766 26.4021 20.0072 27.5443C19.5378 28.6864 19.2986 29.91 19.3031 31.1448C19.3031 33.8791 20.0983 36.8027 21.4304 38.9651C21.9426 39.8114 22.5756 40.5784 23.3094 41.2419H22.1834C21.6024 41.2425 21.0223 41.2907 20.4491 41.3858C19.1757 40.4656 17.6439 39.9717 16.0728 39.975H16.0682C16.3624 39.6405 16.6274 39.2814 16.8601 38.9016C17.803 37.3709 18.3659 35.3038 18.3659 33.3722C18.3659 31.5824 17.6549 29.8659 16.3894 28.6003C15.1238 27.3347 13.4073 26.6237 11.6175 26.6237C9.82768 26.6237 8.11119 27.3347 6.84561 28.6003C5.58003 29.8659 4.86903 31.5824 4.86903 33.3722C4.86903 35.7881 5.65868 38.29 7.16803 39.975H7.16231C3.21293 39.975 0 42.9911 0 46.6983V54.4932C0 54.7626 0.107003 55.0209 0.29747 55.2114C0.487936 55.4019 0.746265 55.5089 1.01563 55.5089H12.2002V61.9531C12.2002 62.2225 12.3072 62.4808 12.4977 62.6713C12.6881 62.8617 12.9465 62.9688 13.2158 62.9688H44.1505C44.4198 62.9688 44.6782 62.8617 44.8686 62.6713C45.0591 62.4808 45.1661 62.2225 45.1661 61.9531V55.5086H56.3528C56.6222 55.5086 56.8805 55.4016 57.071 55.2111C57.2615 55.0207 57.3685 54.7623 57.3685 54.493V46.6981C57.3685 42.9909 54.1539 39.9747 50.2026 39.9747ZM41.0302 33.3719C41.0302 32.1204 41.5274 30.9201 42.4124 30.0351C43.2974 29.1501 44.4977 28.6529 45.7492 28.6529C47.0008 28.6529 48.201 29.1501 49.086 30.0351C49.971 30.9201 50.4682 32.1204 50.4682 33.3719C50.4682 35.9248 49.186 39.9747 45.7473 39.9747C42.3109 39.9747 41.0302 35.9248 41.0302 33.3719ZM28.6821 23.7928C30.6312 23.795 32.4998 24.5703 33.878 25.9484C35.2562 27.3266 36.0314 29.1952 36.0336 31.1443C36.0336 31.1972 36.0315 31.2503 36.0307 31.3032C33.2005 30.9805 30.7578 30.3511 27.4589 27.7646C27.2966 27.6374 27.0994 27.5626 26.8935 27.5502C26.6876 27.5378 26.4828 27.5884 26.3063 27.6952L21.3492 30.6973C21.4645 28.8298 22.2869 27.0764 23.6492 25.7937C25.0114 24.5111 26.8111 23.7956 28.6821 23.7928ZM23.1597 37.8996C22.3118 36.5229 21.718 34.7777 21.4675 32.9992L26.7663 29.7911C30.2101 32.3465 32.9057 32.9954 35.8508 33.327C35.5705 35.0375 34.9771 36.6888 34.1477 37.992C33.2041 39.4744 31.4898 41.242 28.6819 41.242C26.3843 41.2416 24.5259 40.1172 23.1597 37.8996ZM6.89965 33.3719C6.89965 32.7524 7.02166 32.139 7.25872 31.5667C7.49578 30.9944 7.84325 30.4744 8.28128 30.0364C8.71932 29.5983 9.23934 29.2509 9.81165 29.0138C10.384 28.7767 10.9974 28.6547 11.6168 28.6547C12.2363 28.6547 12.8497 28.7767 13.422 29.0138C13.9944 29.2509 14.5144 29.5983 14.9524 30.0364C15.3904 30.4744 15.7379 30.9944 15.975 31.5667C16.212 32.139 16.334 32.7524 16.334 33.3719C16.334 35.9248 15.0533 39.9747 11.6168 39.9747C8.18035 39.9747 6.89965 35.9248 6.89965 33.3719ZM2.03062 53.4774V46.6981C2.03062 44.1109 4.3324 42.006 7.16168 42.006H16.0721C16.6192 42.0059 17.1632 42.0872 17.6863 42.2472C14.4346 43.7894 12.1992 46.9465 12.1992 50.5851V53.4777L2.03062 53.4774ZM43.1338 60.9375H37.9856V54.6764C37.9856 54.4071 37.8786 54.1487 37.6882 53.9583C37.4977 53.7678 37.2394 53.6608 36.97 53.6608C36.7007 53.6608 36.4423 53.7678 36.2519 53.9583C36.0614 54.1487 35.9544 54.4071 35.9544 54.6764V60.9375H21.4134V54.6764C21.4134 54.4071 21.3064 54.1487 21.116 53.9583C20.9255 53.7678 20.6672 53.6608 20.3978 53.6608C20.1285 53.6608 19.8701 53.7678 19.6797 53.9583C19.4892 54.1487 19.3822 54.4071 19.3822 54.6764V60.9375H14.2304V50.5847C14.2304 46.5529 17.7978 43.2729 22.1828 43.2729H35.1821C39.5671 43.2729 43.1345 46.5529 43.1345 50.5847L43.1338 60.9375ZM55.3372 53.4774H45.1651V50.5847C45.1651 46.9461 42.9297 43.7891 39.6779 42.2468C40.2011 42.0868 40.7451 42.0055 41.2921 42.0056H50.2026C53.0337 42.0056 55.3372 44.1105 55.3372 46.6977V53.4774ZM23.0387 12.0933L22.2464 17.5904C22.22 17.7734 22.2441 17.9601 22.3161 18.1305C22.388 18.3008 22.5052 18.4483 22.6548 18.5569C22.8044 18.6656 22.9808 18.7314 23.1651 18.7471C23.3493 18.7629 23.5343 18.728 23.7002 18.6464L28.6821 16.1935L33.6676 18.6466C33.8335 18.7283 34.0185 18.7631 34.2028 18.7473C34.387 18.7315 34.5634 18.6658 34.713 18.5571C34.8626 18.4484 34.9797 18.3009 35.0517 18.1306C35.1236 17.9603 35.1477 17.7735 35.1213 17.5905L34.3289 12.0934L38.2018 8.11167C38.3308 7.97915 38.4211 7.81395 38.463 7.63389C38.5049 7.45383 38.4969 7.26574 38.4398 7.0899C38.3828 6.91405 38.2788 6.75712 38.139 6.63603C37.9993 6.51494 37.8292 6.43429 37.6471 6.40275L32.1723 5.45505L29.5803 0.541963C29.4941 0.378437 29.3649 0.241543 29.2066 0.146038C29.0483 0.0505328 28.867 3.92136e-05 28.6821 0C28.4972 4.0474e-05 28.3158 0.0505613 28.1575 0.146114C27.9992 0.241666 27.87 0.378624 27.7838 0.542217L25.1954 5.4553L19.721 6.40288C19.5389 6.43441 19.3687 6.51507 19.229 6.63616C19.0893 6.75725 18.9853 6.91418 18.9282 7.09002C18.8712 7.26587 18.8632 7.45396 18.9051 7.63402C18.947 7.81408 19.0373 7.97928 19.1662 8.1118L23.0387 12.0933ZM26.034 7.37128C26.1872 7.34475 26.3323 7.28341 26.458 7.19198C26.5838 7.10055 26.6868 6.98147 26.7593 6.84392L28.6821 3.19338L30.6084 6.84442C30.6809 6.98185 30.784 7.10081 30.9097 7.19215C31.0353 7.28349 31.1803 7.34477 31.3334 7.37128L35.4027 8.07561L32.5245 11.0353C32.4161 11.1468 32.3347 11.2817 32.2866 11.4296C32.2386 11.5775 32.2252 11.7345 32.2474 11.8884L32.8362 15.9736L29.1305 14.1502C28.991 14.0815 28.8375 14.0458 28.682 14.0458C28.5265 14.0458 28.373 14.0815 28.2335 14.1502L24.5318 15.9729L25.1205 11.8883C25.1427 11.7344 25.1292 11.5774 25.0812 11.4295C25.0331 11.2816 24.9517 11.1468 24.8433 11.0353L21.9647 8.07561L26.034 7.37128ZM4.18869 13.8063L3.64444 17.5909C3.61813 17.7739 3.64228 17.9606 3.71429 18.131C3.7863 18.3013 3.90344 18.4487 4.05308 18.5573C4.20272 18.6659 4.37917 18.7317 4.56341 18.7474C4.74766 18.7631 4.93269 18.7282 5.09856 18.6465L8.52896 16.9566L11.9559 18.6462C12.1218 18.728 12.3068 18.7629 12.4911 18.7473C12.6753 18.7316 12.8518 18.6659 13.0015 18.5573C13.1512 18.4487 13.2683 18.3013 13.3404 18.131C13.4124 17.9607 13.4366 17.7739 13.4103 17.5909L12.8661 13.8067L15.5332 11.0662C15.6622 10.9337 15.7525 10.7686 15.7945 10.5885C15.8364 10.4084 15.8285 10.2203 15.7714 10.0445C15.7143 9.86862 15.6104 9.71167 15.4707 9.59056C15.331 9.46944 15.1609 9.38876 14.9787 9.35721L11.21 8.70467L9.42754 5.32454C9.34133 5.16108 9.21215 5.02423 9.05392 4.92875C8.89569 4.83327 8.71441 4.78278 8.5296 4.78271C8.34484 4.78269 8.16357 4.83308 8.00532 4.92845C7.84708 5.02381 7.71784 5.16054 7.63153 5.32391L5.8453 8.70467L2.07962 9.35733C1.89751 9.38889 1.72747 9.46955 1.58781 9.5906C1.44816 9.71166 1.34418 9.86853 1.28709 10.0443C1.23 10.2201 1.22196 10.4081 1.26383 10.5881C1.3057 10.7682 1.3959 10.9333 1.52471 11.0659L4.18869 13.8063ZM6.6837 10.6209C6.83667 10.5944 6.98154 10.5332 7.10716 10.442C7.23278 10.3507 7.33582 10.2319 7.40835 10.0947L8.52833 7.97456L9.64552 10.0947C9.718 10.2322 9.82107 10.3512 9.94679 10.4426C10.0725 10.534 10.2175 10.5953 10.3707 10.6218L12.7334 11.0308L11.0613 12.7489C10.9529 12.8603 10.8715 12.9952 10.8234 13.143C10.7753 13.2909 10.7618 13.4478 10.7839 13.6018L11.1249 15.9729L8.97774 14.9143C8.8381 14.8455 8.68451 14.8097 8.52884 14.8097C8.37316 14.8097 8.21957 14.8455 8.07993 14.9143L5.92871 15.974L6.26983 13.602C6.29196 13.4482 6.27849 13.2913 6.23046 13.1436C6.18244 12.9958 6.10114 12.861 5.99282 12.7495L4.32275 11.0301L6.6837 10.6209ZM44.4983 13.8063L43.9546 17.5909C43.9283 17.7739 43.9524 17.9606 44.0244 18.131C44.0965 18.3013 44.2136 18.4487 44.3632 18.5573C44.5129 18.6659 44.6893 18.7317 44.8736 18.7474C45.0578 18.7631 45.2428 18.7282 45.4087 18.6465L48.8392 16.9566L52.2699 18.6465C52.4358 18.7282 52.621 18.7631 52.8053 18.7474C52.9896 18.7316 53.1661 18.6658 53.3158 18.5571C53.4654 18.4483 53.5825 18.3008 53.6544 18.1303C53.7264 17.9599 53.7504 17.7731 53.7239 17.59L53.1766 13.8068L55.8434 11.0668C55.9723 10.9343 56.0627 10.7691 56.1046 10.589C56.1466 10.409 56.1386 10.2208 56.0816 10.045C56.0245 9.86913 55.9205 9.71218 55.7808 9.59106C55.6411 9.46995 55.471 9.38927 55.2888 9.35771L51.52 8.70518L49.7371 5.32454C49.6508 5.16106 49.5216 5.0242 49.3634 4.92872C49.2051 4.83324 49.0238 4.78276 48.839 4.78271C48.6543 4.78272 48.473 4.83312 48.3148 4.92848C48.1566 5.02385 48.0274 5.16056 47.9411 5.32391L46.1552 8.70467L42.3895 9.35733C42.2074 9.38888 42.0373 9.46951 41.8977 9.59056C41.758 9.71161 41.654 9.86848 41.5969 10.0443C41.5398 10.2201 41.5317 10.4081 41.5736 10.5881C41.6155 10.7681 41.7057 10.9333 41.8345 11.0659L44.4983 13.8063ZM46.9932 10.6209C47.1462 10.5944 47.2911 10.5332 47.4167 10.4419C47.5423 10.3507 47.6454 10.2318 47.7179 10.0946L48.8379 7.97443L49.955 10.0946C50.0275 10.232 50.1306 10.3511 50.2563 10.4424C50.382 10.5338 50.5271 10.5951 50.6802 10.6217L53.043 11.0307L51.3708 12.7488C51.2623 12.8603 51.1808 12.9953 51.1327 13.1433C51.0847 13.2914 51.0713 13.4485 51.0936 13.6025L51.4363 15.9727L49.287 14.9139C49.1474 14.8452 48.9938 14.8095 48.8382 14.8095C48.6825 14.8095 48.529 14.8452 48.3893 14.9139L46.2382 15.9735L46.5794 13.6018C46.6015 13.4479 46.588 13.291 46.54 13.1432C46.492 12.9954 46.4107 12.8606 46.3023 12.7491L44.6323 11.0301L46.9932 10.6209Z" fill="white"/>
</svg>
