<svg width="40" height="58" viewBox="0 0 40 58" fill="none" xmlns="http://www.w3.org/2000/svg">
<path d="M19.9979 11.2798C18.068 11.2798 16.1815 11.8525 14.5769 12.9256C12.9723 13.9986 11.7216 15.5238 10.9831 17.3082C10.2446 19.0926 10.0514 21.0561 10.4278 22.9504C10.8043 24.8447 11.7337 26.5848 13.0983 27.9505C14.4629 29.3162 16.2015 30.2463 18.0943 30.6231C19.9871 30.9999 21.949 30.8065 23.7319 30.0674C25.5149 29.3282 27.0388 28.0766 28.111 26.4707C29.1832 24.8647 29.7554 22.9767 29.7554 21.0453C29.7524 18.4562 28.7234 15.9741 26.8942 14.1434C25.0649 12.3126 22.5848 11.2828 19.9979 11.2798Z" fill="white"/>
<path d="M17.8093 44.6255L17.7567 44.5774L16.5133 43.4512L13.5877 40.8022L10.4068 41.1446L8.46014 41.3535L7.99844 41.4039L6.51198 41.5632L1.83093 51.5186L9.07956 51.6146L13.7713 57.1428L19.1045 45.7998L17.8093 44.6255Z" fill="white"/>
<path d="M33.4909 41.562L32.0045 41.4026L31.5428 41.3538L29.5962 41.1441L26.4153 40.8018L23.4896 43.4507L22.2462 44.577L22.1936 44.625L20.8984 45.7993L26.2317 57.1424L30.9234 51.6142L38.172 51.5181L33.4909 41.562Z" fill="white"/>
<path d="M37.0888 21.0453L40 14.5418L33.8287 10.9931L32.3643 4.01843L25.2841 4.78094L20.0019 0L14.7197 4.78094L7.63947 4.01843L6.17512 10.9931L0.00380736 14.5418L2.91118 21.0453L0 27.5495L6.17131 31.0982L7.63566 38.0729L8.17508 38.0149L10.1232 37.8052L12.0699 37.5963L12.5918 37.5407L14.7144 37.3119L16.3144 38.7607L17.9989 40.2857L18.5238 40.7615L19.2956 41.46L19.9981 42.0959L20.7006 41.46L21.4724 40.7615L21.9973 40.2857L23.3077 39.1007L25.278 37.3165L28.7187 37.6855L29.0692 37.7237L29.8699 37.8098L31.8165 38.0195L32.356 38.0775L33.8203 31.1028L39.9916 27.5541L37.0888 21.0453ZM20.0019 34.1604C17.4101 34.1604 14.8765 33.3913 12.7214 31.9501C10.5664 30.509 8.88676 28.4607 7.89491 26.0642C6.90306 23.6678 6.64355 21.0307 7.14919 18.4866C7.65483 15.9425 8.90291 13.6056 10.7356 11.7714C12.5683 9.93726 14.9033 8.68816 17.4453 8.18211C19.9874 7.67606 22.6222 7.93578 25.0168 8.92844C27.4113 9.92109 29.458 11.6021 30.8979 13.7589C32.3379 15.9157 33.1064 18.4513 33.1064 21.0453C33.103 24.5226 31.7212 27.8565 29.2644 30.3153C26.8076 32.7741 23.4764 34.157 20.0019 34.1604Z" fill="white"/>
</svg>
