<svg width="518" height="518" viewBox="0 0 518 518" fill="none" xmlns="http://www.w3.org/2000/svg">
<path opacity="0.1" fill-rule="evenodd" clip-rule="evenodd" d="M508.911 192.593L26.5098 372.425C24.1575 367.6 21.9361 362.659 19.9137 357.608L504.196 177.075C505.975 182.216 507.528 187.406 508.911 192.593ZM515.506 225.308L42.9398 401.474C39.951 396.889 37.0897 392.183 34.371 387.392L512.765 209.054C513.844 214.456 514.763 219.885 515.506 225.308ZM517.761 259.644L63.7409 428.896C60.003 424.622 56.4156 420.19 52.987 415.629L517.176 242.586C517.6 248.267 517.787 253.967 517.761 259.644ZM515.189 295.776L89.3366 454.528C84.7913 450.59 80.3847 446.463 76.093 442.189L517.092 277.79C516.679 283.819 516.016 289.836 515.189 295.776ZM506.619 334.18L120.925 477.961C115.327 474.45 109.901 470.738 104.616 466.764L511.649 315.028C510.225 321.503 508.551 327.862 506.619 334.18ZM490.086 375.519L160.484 498.39C153.463 495.512 146.567 492.313 139.835 488.811L499.426 354.761C496.629 361.815 493.508 368.748 490.086 375.519ZM460.259 421.812L213.306 513.872C203.756 512.182 194.341 509.92 185.069 507.123L477.217 398.214C472.028 406.369 466.37 414.283 460.259 421.812ZM385.933 484.695C374.382 491.177 362.189 496.862 349.381 501.637C336.572 506.412 323.633 510.095 310.658 512.757C290.651 516.863 270.558 518.514 250.7 517.832L434.579 449.285C420.016 462.798 403.745 474.703 385.933 484.695ZM9.34211 326.373L491.743 146.541C494.093 151.367 496.317 156.308 498.337 161.359L14.0551 341.892C12.2778 336.75 10.7224 331.561 9.34211 326.373ZM2.76656 293.616L475.271 117.473C478.291 122.049 481.15 126.753 483.87 131.543L5.47616 309.882C4.39525 304.48 3.47901 299.052 2.76656 293.616ZM0.51141 259.283L454.501 90.0416C458.236 94.3142 461.827 98.7478 465.255 103.309L1.06667 276.352C0.672774 270.659 0.48261 264.958 0.51141 259.283ZM3.112 223.137L428.903 64.4083C433.448 68.3462 437.857 72.4723 442.116 76.7589L1.17776 241.134C1.59344 235.105 2.25362 229.089 3.112 223.137ZM11.6338 184.786L397.328 41.0053C402.924 44.5167 408.352 48.2278 413.667 52.1904L6.63405 203.927C8.02759 197.463 9.70004 191.105 11.6338 184.786ZM28.1664 143.447L357.769 20.5762C364.776 23.4243 371.685 26.6531 378.417 30.155L18.827 164.205C21.6239 157.151 24.7316 150.188 28.1664 143.447ZM57.9523 97.135L304.905 5.07463C314.465 6.79859 323.881 9.05802 333.142 11.8244L41.0547 120.71C46.2027 112.538 51.8512 104.697 57.9523 97.135ZM132.46 34.1858C143.95 27.7251 156.092 22.0934 168.842 17.3406C181.589 12.5885 194.458 8.89644 207.372 6.25951C227.439 2.12907 247.591 0.456087 267.478 1.12919L83.661 69.6537C98.2545 56.1267 114.586 44.1989 132.46 34.1858Z" fill="#181818"/>
</svg>
