<svg width="215" height="206" viewBox="0 0 215 206" fill="none" xmlns="http://www.w3.org/2000/svg">
<path opacity="0.5" fill-rule="evenodd" clip-rule="evenodd" d="M5.66511 108.331C7.38378 109.852 8.86909 111.165 11.9245 111.165C14.9783 111.165 16.4651 109.852 18.1838 108.331C20.1146 106.625 22.3001 104.692 26.5683 104.692C30.8364 104.692 33.0234 106.625 34.9526 108.331C36.6729 109.852 38.1582 111.165 41.212 111.165C44.2658 111.165 45.751 109.852 47.4697 108.331C49.3989 106.625 51.5861 104.692 55.8526 104.692C60.1207 104.692 62.3061 106.626 64.2354 108.331C65.9557 109.852 67.4393 111.165 70.4931 111.165C73.5468 111.165 75.0321 109.852 76.7524 108.331C78.6816 106.625 80.8687 104.692 85.1352 104.692C89.4033 104.692 91.5888 106.625 93.518 108.331C95.2383 109.852 96.7235 111.165 99.7757 111.165C102.828 111.165 104.313 109.852 106.032 108.331C107.961 106.626 110.146 104.692 114.413 104.692C118.679 104.692 120.867 106.626 122.796 108.331C124.516 109.852 126.001 111.165 129.055 111.165C132.109 111.165 133.594 109.852 135.314 108.331C137.244 106.625 139.431 104.692 143.697 104.692C147.964 104.692 150.149 106.625 152.078 108.331C153.799 109.852 155.284 111.165 158.338 111.165C161.392 111.165 162.877 109.852 164.597 108.331C166.526 106.625 168.712 104.692 172.978 104.692C177.246 104.692 179.432 106.625 181.361 108.331C183.081 109.852 184.567 111.165 187.62 111.165C190.676 111.165 192.161 109.852 193.88 108.331C195.809 106.625 197.996 104.692 202.264 104.692C206.531 104.692 208.718 106.625 210.647 108.331C211.661 109.229 212.602 110.045 213.823 110.571C213.742 111.687 213.644 112.797 213.529 113.902C211.337 113.222 209.86 111.943 208.522 110.762C206.802 109.242 205.316 107.929 202.264 107.929C199.21 107.929 197.724 109.242 196.005 110.762C194.076 112.467 191.889 114.4 187.62 114.4C183.354 114.4 181.167 112.467 179.238 110.762C177.517 109.242 176.032 107.929 172.978 107.929C169.926 107.929 168.441 109.242 166.721 110.762C164.791 112.467 162.606 114.4 158.338 114.4C154.071 114.4 151.884 112.467 149.955 110.762C148.235 109.242 146.749 107.929 143.697 107.929C140.643 107.929 139.158 109.242 137.438 110.762C135.509 112.467 133.322 114.4 129.055 114.4C124.787 114.4 122.602 112.467 120.672 110.763C118.952 109.242 117.467 107.929 114.413 107.929C111.361 107.929 109.876 109.242 108.157 110.762C106.228 112.467 104.042 114.4 99.7757 114.4C95.5092 114.4 93.3238 112.467 91.3946 110.762C89.6743 109.242 88.189 107.929 85.1352 107.929C82.0814 107.929 80.5961 109.242 78.8758 110.762C76.9466 112.467 74.7595 114.4 70.493 114.4C66.2266 114.4 64.0411 112.467 62.1119 110.763C60.3916 109.242 58.9064 107.929 55.8526 107.929C52.8004 107.929 51.3151 109.242 49.5948 110.762C47.6656 112.467 45.4785 114.4 41.212 114.4C36.9455 114.4 34.7585 112.467 32.8292 110.762C31.1089 109.242 29.6237 107.929 26.5683 107.929C23.5145 107.929 22.0292 109.242 20.3089 110.763C18.3796 112.467 16.1926 114.4 11.9245 114.4C7.6564 114.4 5.46925 112.467 3.54003 110.762C2.47424 109.82 1.49659 108.958 0.181069 108.438C0.120675 107.299 0.0765468 106.156 0.0520565 105.009C2.59498 105.624 4.20596 107.041 5.66511 108.331ZM11.9245 124.192C14.9783 124.192 16.4651 122.879 18.1838 121.358C20.1146 119.652 22.3001 117.719 26.5683 117.719C30.8364 117.719 33.0234 119.652 34.9526 121.358C36.6729 122.879 38.1582 124.192 41.212 124.192C44.2658 124.192 45.751 122.879 47.4697 121.358C49.3989 119.652 51.5861 117.719 55.8526 117.719C60.1207 117.719 62.3061 119.654 64.2354 121.358C65.9556 122.879 67.4393 124.192 70.493 124.192C73.5468 124.192 75.0321 122.879 76.7524 121.358C78.6816 119.652 80.8687 117.719 85.1352 117.719C89.4033 117.719 91.5888 119.652 93.518 121.358C95.2383 122.879 96.7235 124.192 99.7757 124.192C102.828 124.192 104.313 122.879 106.032 121.358C107.961 119.654 110.146 117.719 114.413 117.719C118.679 117.719 120.867 119.654 122.796 121.358C124.516 122.879 126.001 124.192 129.055 124.192C132.109 124.192 133.594 122.879 135.314 121.358C137.244 119.652 139.431 117.719 143.697 117.719C147.964 117.719 150.149 119.652 152.078 121.358C153.799 122.879 155.284 124.192 158.338 124.192C161.392 124.192 162.877 122.879 164.597 121.358C166.526 119.652 168.712 117.719 172.978 117.719C177.246 117.719 179.432 119.652 181.361 121.358C183.081 122.879 184.567 124.192 187.62 124.192C190.676 124.192 192.161 122.879 193.88 121.358C195.809 119.652 197.996 117.719 202.264 117.719C206.531 117.719 208.718 119.652 210.647 121.358C211.184 121.833 211.701 122.28 212.246 122.682C212.033 123.821 211.801 124.953 211.553 126.079C210.371 125.408 209.415 124.577 208.522 123.789C206.802 122.269 205.316 120.956 202.264 120.956C199.21 120.956 197.724 122.269 196.005 123.789C194.076 125.495 191.889 127.427 187.62 127.427C183.354 127.427 181.167 125.495 179.238 123.789C177.517 122.269 176.032 120.956 172.978 120.956C169.926 120.956 168.441 122.269 166.721 123.789C164.791 125.495 162.606 127.427 158.338 127.427C154.071 127.427 151.884 125.495 149.955 123.789C148.235 122.269 146.749 120.956 143.697 120.956C140.643 120.956 139.158 122.269 137.438 123.789C135.509 125.495 133.322 127.427 129.055 127.427C124.787 127.427 122.602 125.495 120.672 123.789C118.952 122.269 117.467 120.956 114.413 120.956C111.361 120.956 109.876 122.269 108.157 123.789C106.228 125.495 104.042 127.427 99.7757 127.427C95.5092 127.427 93.3238 125.495 91.3946 123.789C89.6743 122.269 88.189 120.956 85.1352 120.956C82.0814 120.956 80.5961 122.269 78.8758 123.789C76.9466 125.495 74.7595 127.427 70.493 127.427C66.2266 127.427 64.0411 125.495 62.1119 123.789C60.3916 122.269 58.9064 120.956 55.8526 120.956C52.8004 120.956 51.3151 122.269 49.5948 123.789C47.6656 125.495 45.4785 127.427 41.212 127.427C36.9455 127.427 34.7585 125.495 32.8292 123.789C31.1089 122.269 29.6237 120.956 26.5683 120.956C23.5145 120.956 22.0292 122.269 20.3089 123.789C18.3796 125.495 16.1926 127.427 11.9245 127.427C7.65639 127.427 5.46925 125.495 3.54003 123.789C2.97041 123.284 2.42199 122.809 1.83604 122.391C1.59122 121.062 1.36764 119.725 1.17178 118.38C3.08958 119.092 4.43282 120.269 5.66511 121.358C7.38378 122.879 8.86909 124.192 11.9245 124.192ZM11.9245 137.219C14.9783 137.219 16.4651 135.905 18.1838 134.385C20.1146 132.679 22.3001 130.746 26.5683 130.746C30.8364 130.746 33.0234 132.679 34.9526 134.385C36.6729 135.905 38.1582 137.219 41.212 137.219C44.2658 137.219 45.751 135.905 47.4697 134.385C49.3989 132.679 51.5861 130.746 55.8526 130.746C60.1207 130.746 62.3061 132.679 64.2354 134.385C65.9556 135.905 67.4393 137.219 70.493 137.219C73.5468 137.219 75.0321 135.905 76.7524 134.385C78.6816 132.679 80.8687 130.746 85.1352 130.746C89.4033 130.746 91.5888 132.679 93.518 134.385C95.2383 135.905 96.7235 137.219 99.7757 137.219C102.828 137.219 104.313 135.905 106.032 134.385C107.961 132.679 110.146 130.746 114.413 130.746C118.679 130.746 120.867 132.679 122.796 134.385C124.516 135.905 126.001 137.219 129.055 137.219C132.109 137.219 133.594 135.905 135.314 134.385C137.244 132.679 139.431 130.746 143.697 130.746C147.964 130.746 150.149 132.679 152.078 134.385C153.799 135.905 155.284 137.219 158.338 137.219C161.392 137.219 162.877 135.905 164.597 134.385C166.526 132.679 168.712 130.746 172.978 130.746C177.246 130.746 179.432 132.679 181.361 134.385C183.081 135.905 184.567 137.219 187.62 137.219C190.676 137.219 192.161 135.905 193.88 134.385C195.809 132.679 197.996 130.746 202.264 130.746C205.806 130.746 207.908 132.08 209.625 133.508C209.292 134.633 208.943 135.751 208.574 136.862C208.556 136.845 208.538 136.831 208.522 136.816C206.802 135.296 205.316 133.982 202.264 133.982C199.21 133.982 197.724 135.296 196.005 136.816C194.076 138.522 191.889 140.455 187.62 140.455C183.354 140.455 181.167 138.522 179.238 136.816C177.517 135.296 176.032 133.982 172.978 133.982C169.926 133.982 168.441 135.296 166.721 136.816C164.791 138.522 162.606 140.455 158.338 140.455C154.071 140.455 151.884 138.522 149.955 136.816C148.235 135.296 146.749 133.982 143.697 133.982C140.643 133.982 139.158 135.296 137.438 136.816C135.509 138.522 133.322 140.455 129.055 140.455C124.787 140.455 122.602 138.522 120.672 136.816C118.952 135.296 117.467 133.982 114.413 133.982C111.361 133.982 109.876 135.296 108.157 136.816C106.228 138.522 104.042 140.455 99.7757 140.455C95.5092 140.455 93.3238 138.522 91.3946 136.816C89.6743 135.296 88.189 133.982 85.1352 133.982C82.0814 133.982 80.5961 135.296 78.8758 136.816C76.9466 138.522 74.7595 140.455 70.493 140.455C66.2266 140.455 64.0411 138.522 62.1119 136.816C60.3916 135.296 58.9064 133.982 55.8526 133.982C52.8004 133.982 51.3151 135.296 49.5948 136.816C47.6656 138.522 45.4785 140.455 41.212 140.455C36.9455 140.455 34.7585 138.522 32.8292 136.816C31.1089 135.296 29.6237 133.982 26.5683 133.982C23.5145 133.982 22.0292 135.296 20.3089 136.816C18.3796 138.522 16.1926 140.455 11.9245 140.455C9.46647 140.455 7.71023 139.807 6.28535 138.936C5.63085 137.101 5.02695 135.245 4.47037 133.366C4.88496 133.704 5.28319 134.049 5.66511 134.385C7.38378 135.905 8.86909 137.219 11.9245 137.219ZM18.1838 147.412C20.1146 145.706 22.3001 143.773 26.5683 143.773C30.8364 143.773 33.0234 145.706 34.9526 147.412C36.6729 148.932 38.1582 150.246 41.212 150.246C44.2658 150.246 45.751 148.932 47.4697 147.412C49.3989 145.706 51.5861 143.773 55.8526 143.773C60.1207 143.773 62.3061 145.706 64.2354 147.412C65.9556 148.932 67.4393 150.246 70.493 150.246C73.5468 150.246 75.0321 148.932 76.7524 147.412C78.6816 145.706 80.8687 143.773 85.1352 143.773C89.4033 143.773 91.5888 145.706 93.518 147.412C95.2383 148.932 96.7235 150.246 99.7757 150.246C102.828 150.246 104.313 148.932 106.032 147.412C107.961 145.706 110.146 143.773 114.413 143.773C118.679 143.773 120.867 145.706 122.796 147.412C124.516 148.932 126.001 150.246 129.055 150.246C132.109 150.246 133.594 148.932 135.314 147.412C137.244 145.706 139.431 143.773 143.697 143.773C147.964 143.773 150.149 145.706 152.078 147.412C153.799 148.932 155.284 150.246 158.338 150.246C161.392 150.246 162.877 148.932 164.597 147.412C166.526 145.706 168.712 143.773 172.978 143.773C177.246 143.773 179.432 145.706 181.361 147.412C183.081 148.932 184.567 150.246 187.62 150.246C190.676 150.246 192.161 148.932 193.88 147.412C195.809 145.706 197.996 143.773 202.264 143.773C203.635 143.773 204.773 143.987 205.775 144.315C205.356 145.316 204.92 146.31 204.471 147.296C203.828 147.118 203.11 147.009 202.264 147.009C199.21 147.009 197.724 148.323 196.005 149.843C194.076 151.549 191.889 153.482 187.62 153.482C183.354 153.482 181.167 151.549 179.238 149.843C177.517 148.323 176.032 147.009 172.978 147.009C169.926 147.009 168.441 148.323 166.721 149.843C164.791 151.549 162.606 153.482 158.338 153.482C154.071 153.482 151.884 151.549 149.955 149.843C148.235 148.323 146.749 147.009 143.697 147.009C140.643 147.009 139.158 148.323 137.438 149.843C135.509 151.549 133.322 153.482 129.055 153.482C124.787 153.482 122.602 151.549 120.672 149.843C118.952 148.323 117.467 147.009 114.413 147.009C111.361 147.009 109.876 148.323 108.157 149.843C106.228 151.549 104.042 153.482 99.7757 153.482C95.5092 153.482 93.3238 151.549 91.3946 149.843C89.6743 148.323 88.189 147.009 85.1352 147.009C82.0814 147.009 80.5961 148.323 78.8758 149.843C76.9466 151.549 74.7595 153.482 70.493 153.482C66.2266 153.482 64.0411 151.549 62.1119 149.843C60.3916 148.323 58.9064 147.009 55.8526 147.009C52.8004 147.009 51.3151 148.323 49.5948 149.843C47.6656 151.549 45.4785 153.482 41.212 153.482C36.9455 153.482 34.7585 151.549 32.8292 149.843C31.1089 148.323 29.6237 147.009 26.5683 147.009C23.5145 147.009 22.0292 148.323 20.3089 149.843C18.5037 151.44 16.4488 153.212 12.6997 153.438C12.1285 152.368 11.5785 151.288 11.0415 150.197C11.3238 150.223 11.6111 150.246 11.9245 150.246C14.9783 150.246 16.4651 148.932 18.1838 147.412ZM26.5683 156.801C30.8364 156.801 33.0234 158.733 34.9526 160.439C36.6729 161.959 38.1582 163.273 41.212 163.273C44.2658 163.273 45.751 161.959 47.4697 160.439C49.3989 158.733 51.5861 156.801 55.8526 156.801C60.1207 156.801 62.3061 158.735 64.2354 160.439C65.9556 161.959 67.4393 163.273 70.493 163.273C73.5468 163.273 75.0321 161.959 76.7524 160.439C78.6816 158.733 80.8687 156.801 85.1352 156.801C89.4033 156.801 91.5888 158.733 93.518 160.439C95.2383 161.959 96.7235 163.273 99.7757 163.273C102.828 163.273 104.313 161.959 106.032 160.439C107.961 158.735 110.146 156.801 114.413 156.801C118.679 156.801 120.867 158.735 122.796 160.439C124.516 161.959 126.001 163.273 129.055 163.273C132.109 163.273 133.594 161.959 135.314 160.439C137.244 158.733 139.431 156.801 143.697 156.801C147.964 156.801 150.149 158.733 152.078 160.439C153.799 161.959 155.284 163.273 158.338 163.273C161.392 163.273 162.877 161.959 164.597 160.439C166.526 158.733 168.712 156.801 172.978 156.801C177.246 156.801 179.432 158.733 181.361 160.439C183.081 161.959 184.567 163.273 187.62 163.273C190.676 163.273 192.161 161.959 193.88 160.439C195.313 159.173 196.893 157.783 199.359 157.15C198.114 159.277 196.798 161.357 195.416 163.386C193.615 164.943 191.463 166.509 187.62 166.509C183.354 166.509 181.167 164.576 179.238 162.87C177.517 161.35 176.032 160.036 172.978 160.036C169.926 160.036 168.441 161.35 166.721 162.87C164.791 164.576 162.606 166.509 158.338 166.509C154.071 166.509 151.884 164.576 149.955 162.87C148.235 161.35 146.749 160.036 143.697 160.036C140.643 160.036 139.158 161.35 137.438 162.87C135.509 164.576 133.322 166.509 129.055 166.509C124.787 166.509 122.602 164.576 120.672 162.87C118.952 161.35 117.467 160.036 114.413 160.036C111.361 160.036 109.876 161.35 108.157 162.87C106.228 164.576 104.042 166.509 99.7757 166.509C95.5092 166.509 93.3238 164.576 91.3946 162.87C89.6743 161.35 88.189 160.036 85.1352 160.036C82.0814 160.036 80.5961 161.35 78.8758 162.87C76.9466 164.576 74.7595 166.509 70.493 166.509C66.2266 166.509 64.0411 164.576 62.1119 162.87C60.3916 161.35 58.9064 160.036 55.8526 160.036C52.8004 160.036 51.3151 161.35 49.5948 162.87C47.6656 164.576 45.4785 166.509 41.212 166.509C36.9455 166.509 34.7585 164.576 32.8292 162.87C31.1089 161.35 29.6237 160.036 26.5683 160.036C23.5145 160.036 22.0292 161.35 20.3089 162.87C19.9188 163.215 19.5124 163.567 19.0864 163.912C18.4727 163.022 17.8704 162.124 17.2828 161.216C17.5815 160.967 17.8802 160.709 18.1838 160.439C20.1146 158.733 22.3001 156.801 26.5683 156.801ZM34.9526 173.466C36.6729 174.986 38.1582 176.299 41.212 176.299C44.2658 176.299 45.751 174.986 47.4697 173.466C49.3989 171.761 51.5861 169.828 55.8526 169.828C60.1207 169.828 62.3061 171.761 64.2354 173.466C65.9556 174.986 67.4393 176.299 70.493 176.299C73.5468 176.299 75.0321 174.986 76.7524 173.466C78.6816 171.761 80.8687 169.828 85.1352 169.828C89.4033 169.828 91.5888 171.761 93.518 173.466C95.2383 174.986 96.7235 176.299 99.7757 176.299C102.828 176.299 104.313 174.986 106.032 173.466C107.961 171.761 110.146 169.828 114.413 169.828C118.679 169.828 120.867 171.761 122.796 173.466C124.516 174.986 126.001 176.299 129.055 176.299C132.109 176.299 133.594 174.986 135.314 173.467C137.244 171.761 139.431 169.828 143.697 169.828C147.964 169.828 150.149 171.761 152.078 173.467C153.799 174.986 155.284 176.299 158.338 176.299C161.392 176.299 162.877 174.986 164.597 173.467C166.526 171.761 168.712 169.828 172.978 169.828C177.246 169.828 179.432 171.761 181.361 173.467C182.592 174.554 183.71 175.525 185.358 175.995C184.565 176.852 183.759 177.701 182.936 178.53C181.435 177.815 180.29 176.828 179.238 175.897C177.517 174.377 176.032 173.063 172.978 173.063C169.926 173.063 168.441 174.377 166.721 175.897C164.791 177.603 162.606 179.536 158.338 179.536C154.071 179.536 151.884 177.602 149.955 175.897C148.235 174.377 146.749 173.063 143.697 173.063C140.643 173.063 139.158 174.377 137.438 175.897C135.509 177.602 133.322 179.536 129.055 179.536C124.787 179.536 122.602 177.603 120.672 175.897C118.952 174.377 117.467 173.063 114.413 173.063C111.361 173.063 109.876 174.377 108.157 175.897C106.228 177.602 104.042 179.536 99.7757 179.536C95.5092 179.536 93.3238 177.603 91.3946 175.897C89.6743 174.377 88.189 173.063 85.1352 173.063C82.0814 173.063 80.5961 174.377 78.8758 175.897C76.9466 177.603 74.7595 179.536 70.493 179.536C66.2266 179.536 64.0411 177.603 62.1119 175.897C60.3916 174.377 58.9064 173.063 55.8526 173.063C52.8004 173.063 51.3151 174.377 49.5948 175.897C47.6656 177.603 45.4785 179.536 41.212 179.536C36.9455 179.536 34.7585 177.603 32.8292 175.897C31.1089 174.377 29.6237 173.063 26.5683 173.063C26.4263 173.063 26.3039 173.08 26.1684 173.086C25.3392 172.125 24.5329 171.145 23.7381 170.154C24.5705 169.949 25.5057 169.828 26.5683 169.828C30.8364 169.828 33.0234 171.761 34.9526 173.466ZM55.8526 182.855C60.1207 182.855 62.3061 184.788 64.2354 186.494C65.9556 188.013 67.4393 189.328 70.493 189.328C73.5468 189.328 75.0321 188.013 76.7524 186.494C78.6816 184.788 80.8687 182.855 85.1352 182.855C89.4033 182.855 91.5888 184.788 93.518 186.494C95.2383 188.013 96.7235 189.328 99.7757 189.328C102.828 189.328 104.313 188.013 106.032 186.494C107.961 184.788 110.146 182.855 114.413 182.855C118.679 182.855 120.867 184.788 122.796 186.494C124.516 188.013 126.001 189.328 129.055 189.328C132.109 189.328 133.594 188.013 135.314 186.494C137.244 184.788 139.431 182.855 143.697 182.855C147.964 182.855 150.149 184.788 152.078 186.494C153.799 188.013 155.284 189.328 158.338 189.328C161.392 189.328 162.877 188.013 164.597 186.494C166.526 184.788 168.712 182.855 172.978 182.855C174.785 182.855 176.203 183.212 177.403 183.741C176.438 184.587 175.458 185.413 174.464 186.223C174.008 186.146 173.525 186.09 172.978 186.09C169.926 186.09 168.441 187.405 166.721 188.924C164.791 190.63 162.606 192.563 158.338 192.563C154.071 192.563 151.884 190.629 149.955 188.924C148.235 187.405 146.749 186.09 143.697 186.09C140.643 186.09 139.158 187.405 137.438 188.924C135.509 190.629 133.322 192.563 129.055 192.563C124.787 192.563 122.602 190.63 120.672 188.924C118.952 187.405 117.467 186.09 114.413 186.09C111.361 186.09 109.876 187.405 108.157 188.924C106.228 190.629 104.042 192.563 99.7757 192.563C95.5092 192.563 93.3238 190.63 91.3946 188.924C89.6743 187.405 88.189 186.09 85.1352 186.09C82.0814 186.09 80.5961 187.405 78.8758 188.924C76.9466 190.63 74.7595 192.563 70.493 192.563C66.2266 192.563 64.0411 190.63 62.1119 188.924C60.3916 187.405 58.9064 186.09 55.8526 186.09C52.8004 186.09 51.3151 187.405 49.5948 188.924C48.6661 189.746 47.6704 190.614 46.4202 191.3C45.3724 190.575 44.3376 189.834 43.3175 189.073C45.0557 188.621 46.2015 187.615 47.4697 186.494C49.3989 184.788 51.5861 182.855 55.8526 182.855ZM64.2354 199.521C65.9556 201.041 67.4393 202.353 70.493 202.353C73.5468 202.353 75.0321 201.041 76.7524 199.521C78.6816 197.815 80.8687 195.882 85.1352 195.882C89.4033 195.882 91.5888 197.815 93.518 199.521C95.2383 201.041 96.7235 202.353 99.7757 202.353C102.828 202.353 104.313 201.041 106.032 199.521C107.961 197.815 110.146 195.882 114.413 195.882C118.679 195.882 120.867 197.815 122.796 199.521C124.516 201.041 126.001 202.353 129.055 202.353C132.109 202.353 133.594 201.041 135.314 199.519C137.244 197.815 139.431 195.882 143.697 195.882C147.964 195.882 150.149 197.815 152.078 199.519C152.271 199.689 152.459 199.854 152.646 200.017C151.581 200.523 150.505 201.011 149.42 201.481C147.907 200.171 146.43 199.118 143.697 199.118C140.643 199.118 139.158 200.43 137.438 201.95C135.509 203.656 133.322 205.59 129.055 205.59C124.787 205.59 122.602 203.656 120.672 201.952C118.952 200.43 117.467 199.118 114.413 199.118C111.361 199.118 109.876 200.43 108.157 201.95C106.228 203.656 104.042 205.59 99.7757 205.59C95.5092 205.59 93.3238 203.656 91.3946 201.95C89.6743 200.43 88.189 199.118 85.1352 199.118C82.0814 199.118 80.5961 200.43 78.8758 201.95C77.5815 203.094 76.155 204.328 74.0789 205.024C67.0051 202.722 60.2512 199.705 53.907 196.047C54.5109 195.951 55.1442 195.882 55.8526 195.882C60.1207 195.882 62.3061 197.815 64.2354 199.521ZM202.264 94.902C199.21 94.902 197.724 96.2145 196.005 97.7344C194.076 99.4403 191.889 101.375 187.62 101.375C183.354 101.375 181.167 99.4403 179.238 97.7344C177.517 96.2145 176.032 94.902 172.978 94.902C169.926 94.902 168.441 96.2145 166.721 97.7344C164.791 99.4403 162.606 101.375 158.338 101.375C154.071 101.375 151.884 99.4403 149.955 97.7344C148.235 96.2145 146.749 94.902 143.697 94.902C140.643 94.902 139.158 96.2145 137.438 97.7344C135.509 99.4403 133.322 101.375 129.055 101.375C124.787 101.375 122.602 99.4403 120.672 97.736C118.952 96.2145 117.467 94.902 114.413 94.902C111.361 94.902 109.876 96.2145 108.157 97.7344C106.228 99.4403 104.042 101.375 99.7757 101.375C95.5092 101.375 93.3238 99.4403 91.3946 97.7343C89.6743 96.2145 88.189 94.902 85.1352 94.902C82.0814 94.902 80.5961 96.2145 78.8758 97.7343C76.9466 99.4403 74.7595 101.375 70.4931 101.375C66.2266 101.375 64.0411 99.4403 62.1119 97.736C60.3916 96.2145 58.9064 94.902 55.8526 94.902C52.8004 94.902 51.3151 96.2145 49.5948 97.7343C47.6656 99.4403 45.4785 101.375 41.212 101.375C36.9455 101.375 34.7585 99.4403 32.8292 97.7343C31.1089 96.2145 29.6237 94.902 26.5683 94.902C23.5145 94.902 22.0292 96.2145 20.3089 97.736C18.3796 99.4403 16.1926 101.375 11.9245 101.375C7.6564 101.375 5.46925 99.4403 3.54003 97.7343C2.49708 96.812 1.53414 95.9713 0.261057 95.4489C0.33288 94.3355 0.419367 93.2255 0.525446 92.1219C2.7909 92.7929 4.30062 94.0988 5.66511 95.3052C7.38378 96.8251 8.86909 98.1376 11.9245 98.1376C14.9783 98.1376 16.4651 96.8251 18.1838 95.3036C20.1146 93.5993 22.3002 91.6664 26.5683 91.6664C30.8364 91.6664 33.0234 93.5993 34.9526 95.3052C36.6729 96.8251 38.1582 98.1376 41.212 98.1376C44.2658 98.1376 45.751 96.8251 47.4697 95.3052C49.3989 93.5993 51.5861 91.6665 55.8526 91.6665C60.1207 91.6665 62.3061 93.5993 64.2354 95.3052C65.9557 96.8251 67.4393 98.1376 70.4931 98.1376C73.5468 98.1376 75.0321 96.8251 76.7524 95.3052C78.6817 93.5993 80.8687 91.6665 85.1352 91.6665C89.4033 91.6665 91.5888 93.5993 93.518 95.3052C95.2383 96.8251 96.7235 98.1376 99.7757 98.1376C102.828 98.1376 104.313 96.8251 106.032 95.3052C107.961 93.5993 110.146 91.6665 114.413 91.6665C118.679 91.6665 120.867 93.5993 122.796 95.3052C124.516 96.8251 126.001 98.1376 129.055 98.1376C132.109 98.1376 133.594 96.8251 135.315 95.3036C137.244 93.5993 139.431 91.6665 143.697 91.6665C147.964 91.6665 150.149 93.5993 152.078 95.3036C153.799 96.8251 155.284 98.1376 158.338 98.1376C161.392 98.1376 162.877 96.8251 164.597 95.3052C166.526 93.5993 168.712 91.6665 172.978 91.6665C177.246 91.6665 179.432 93.5993 181.361 95.3036C183.081 96.8251 184.567 98.1376 187.62 98.1376C190.676 98.1376 192.161 96.8251 193.88 95.3053C195.809 93.5993 197.996 91.6665 202.264 91.6665C206.531 91.6665 208.718 93.5993 210.647 95.3053C211.711 96.2456 212.687 97.1059 213.999 97.625C214.052 98.7628 214.083 99.9056 214.097 101.052C211.576 100.431 209.975 99.0191 208.522 97.7344C206.802 96.2145 205.316 94.902 202.264 94.902ZM202.264 81.8749C199.21 81.8749 197.724 83.1874 196.005 84.7072C194.076 86.4132 191.889 88.3476 187.62 88.3476C183.354 88.3476 181.167 86.4132 179.238 84.7072C177.517 83.1874 176.032 81.8749 172.978 81.8749C169.926 81.8749 168.441 83.1874 166.721 84.7072C164.791 86.4132 162.606 88.3476 158.338 88.3476C154.071 88.3476 151.884 86.4132 149.955 84.7072C148.235 83.1874 146.749 81.8749 143.697 81.8749C140.643 81.8749 139.158 83.1874 137.438 84.7072C135.509 86.4132 133.322 88.3476 129.055 88.3476C124.787 88.3476 122.602 86.4131 120.672 84.7088C118.952 83.1874 117.467 81.8749 114.413 81.8749C111.361 81.8749 109.876 83.1874 108.157 84.7072C106.228 86.4132 104.042 88.3476 99.7757 88.3476C95.5092 88.3476 93.3238 86.4132 91.3946 84.7072C89.6743 83.1874 88.189 81.8749 85.1352 81.8749C82.0814 81.8749 80.5961 83.1874 78.8758 84.7072C76.9466 86.4132 74.7595 88.3476 70.4931 88.3476C66.2266 88.3476 64.0411 86.4131 62.1119 84.7088C60.3916 83.1874 58.9064 81.8749 55.8526 81.8749C52.8004 81.8749 51.3151 83.1874 49.5948 84.7072C47.6656 86.4132 45.4785 88.3476 41.212 88.3476C36.9455 88.3476 34.7585 86.4132 32.8292 84.7072C31.1089 83.1874 29.6237 81.8749 26.5683 81.8749C23.5145 81.8749 22.0292 83.1874 20.3089 84.7088C18.3796 86.4131 16.1926 88.3476 11.9245 88.3476C7.6564 88.3476 5.46925 86.4132 3.54003 84.7072C2.94104 84.1767 2.36651 83.6771 1.74629 83.2429C1.95195 82.1083 2.17883 80.9803 2.41713 79.8588C3.70491 80.5493 4.71682 81.4406 5.66511 82.2781C7.38378 83.7979 8.86909 85.1104 11.9245 85.1104C14.9783 85.1104 16.4651 83.7979 18.1838 82.2765C20.1146 80.5721 22.3002 78.6377 26.5683 78.6377C30.8364 78.6377 33.0234 80.5722 34.9526 82.2781C36.6729 83.7979 38.1582 85.1104 41.212 85.1104C44.2658 85.1104 45.751 83.7979 47.4697 82.2781C49.3989 80.5722 51.5861 78.6377 55.8526 78.6377C60.1207 78.6377 62.3061 80.5722 64.2354 82.2781C65.9557 83.7979 67.4393 85.1104 70.4931 85.1104C73.5468 85.1104 75.0321 83.7979 76.7524 82.2781C78.6817 80.5722 80.8687 78.6377 85.1352 78.6377C89.4033 78.6377 91.5888 80.5722 93.518 82.2781C95.2383 83.7979 96.7235 85.1104 99.7757 85.1104C102.828 85.1104 104.313 83.7979 106.032 82.2781C107.961 80.5722 110.146 78.6377 114.413 78.6377C118.679 78.6377 120.867 80.5722 122.796 82.2781C124.516 83.7979 126.001 85.1105 129.055 85.1105C132.109 85.1105 133.594 83.7979 135.315 82.2765C137.244 80.5722 139.431 78.6377 143.697 78.6377C147.964 78.6377 150.149 80.5722 152.078 82.2765C153.799 83.7979 155.284 85.1105 158.338 85.1105C161.392 85.1105 162.877 83.7979 164.597 82.2781C166.526 80.5722 168.712 78.6377 172.978 78.6377C177.246 78.6377 179.432 80.5722 181.361 82.2765C183.081 83.7979 184.567 85.1105 187.62 85.1105C190.676 85.1105 192.161 83.7979 193.88 82.2781C195.809 80.5722 197.996 78.6377 202.264 78.6377C206.531 78.6377 208.718 80.5722 210.647 82.2781C211.262 82.8217 211.848 83.336 212.486 83.7767C212.715 85.0794 212.916 86.3936 213.097 87.7126C211.138 87.0025 209.771 85.8124 208.522 84.7072C206.802 83.1874 205.316 81.8749 202.264 81.8749ZM202.264 68.8477C199.21 68.8477 197.724 70.1602 196.005 71.6801C194.076 73.386 191.889 75.3205 187.62 75.3205C183.354 75.3205 181.167 73.386 179.238 71.6801C177.517 70.1602 176.032 68.8477 172.978 68.8477C169.926 68.8477 168.441 70.1602 166.721 71.6801C164.791 73.386 162.606 75.3205 158.338 75.3205C154.071 75.3205 151.884 73.386 149.955 71.6801C148.235 70.1602 146.749 68.8477 143.697 68.8477C140.643 68.8477 139.158 70.1602 137.438 71.6801C135.509 73.386 133.322 75.3205 129.055 75.3205C124.787 75.3205 122.602 73.386 120.672 71.6817C118.952 70.1603 117.467 68.8477 114.413 68.8477C111.361 68.8477 109.876 70.1602 108.157 71.6801C106.228 73.386 104.042 75.3205 99.7757 75.3205C95.5092 75.3205 93.3238 73.386 91.3946 71.6801C89.6743 70.1602 88.189 68.8477 85.1352 68.8477C82.0814 68.8477 80.5961 70.1602 78.8758 71.6801C76.9466 73.386 74.7595 75.3205 70.4931 75.3205C66.2266 75.3205 64.0411 73.386 62.1119 71.6817C60.3916 70.1602 58.9064 68.8477 55.8526 68.8477C52.8004 68.8477 51.3151 70.1602 49.5948 71.6801C47.6656 73.386 45.4785 75.3205 41.212 75.3205C36.9455 75.3205 34.7585 73.386 32.8292 71.6801C31.1089 70.1602 29.6237 68.8477 26.5683 68.8477C23.5145 68.8477 22.0292 70.1602 20.3089 71.6817C18.3797 73.386 16.1926 75.3205 11.9245 75.3205C8.20806 75.3205 6.07158 73.8545 4.3072 72.3494C4.63527 71.2148 4.98292 70.0901 5.34852 68.9734C5.45298 69.0649 5.56067 69.1595 5.66511 69.2509C7.38379 70.7708 8.86909 72.0833 11.9245 72.0833C14.9783 72.0833 16.4651 70.7707 18.1838 69.2493C20.1146 67.545 22.3002 65.6121 26.5683 65.6121C30.8364 65.6121 33.0234 67.545 34.9526 69.2509C36.6729 70.7708 38.1582 72.0833 41.212 72.0833C44.2658 72.0833 45.751 70.7708 47.4697 69.2509C49.3989 67.545 51.5861 65.6121 55.8526 65.6121C60.1207 65.6121 62.3061 67.545 64.2354 69.2509C65.9557 70.7708 67.4393 72.0833 70.4931 72.0833C73.5468 72.0833 75.0321 70.7708 76.7524 69.2509C78.6817 67.545 80.8687 65.6121 85.1352 65.6121C89.4033 65.6121 91.5888 67.545 93.518 69.2509C95.2383 70.7708 96.7235 72.0833 99.7757 72.0833C102.828 72.0833 104.313 70.7708 106.032 69.2509C107.961 67.545 110.146 65.6121 114.413 65.6121C118.679 65.6121 120.867 67.545 122.796 69.2509C124.516 70.7708 126.001 72.0833 129.055 72.0833C132.109 72.0833 133.594 70.7708 135.315 69.2493C137.244 67.545 139.431 65.6121 143.697 65.6121C147.964 65.6121 150.149 67.545 152.078 69.2493C153.799 70.7708 155.284 72.0833 158.338 72.0833C161.392 72.0833 162.877 70.7708 164.597 69.2509C166.526 67.545 168.712 65.6121 172.978 65.6121C177.246 65.6121 179.432 67.545 181.361 69.2493C183.081 70.7708 184.567 72.0833 187.62 72.0833C190.676 72.0833 192.161 70.7708 193.88 69.2509C195.809 67.545 197.996 65.6122 202.264 65.6122C204.913 65.6122 206.759 66.3582 208.241 67.3312C208.878 69.1775 209.469 71.045 210.006 72.9371C209.478 72.5257 208.992 72.0964 208.522 71.6801C206.802 70.1602 205.316 68.8477 202.264 68.8477ZM196.005 58.6546C194.076 60.3605 191.889 62.2933 187.62 62.2933C183.354 62.2933 181.167 60.3589 179.238 58.6546C177.517 57.1347 176.032 55.8206 172.978 55.8206C169.926 55.8206 168.441 57.1347 166.721 58.6546C164.791 60.3605 162.606 62.2933 158.338 62.2933C154.071 62.2933 151.884 60.3589 149.955 58.6546C148.235 57.1347 146.749 55.8206 143.697 55.8206C140.643 55.8206 139.158 57.1347 137.438 58.6545C135.509 60.3588 133.322 62.2933 129.055 62.2933C124.787 62.2933 122.602 60.3605 120.672 58.6545C118.952 57.1347 117.467 55.8206 114.413 55.8206C111.361 55.8206 109.876 57.1347 108.157 58.6545C106.228 60.3588 104.042 62.2933 99.7757 62.2933C95.5092 62.2933 93.3238 60.3605 91.3946 58.6545C89.6743 57.1347 88.189 55.8206 85.1352 55.8206C82.0814 55.8206 80.5961 57.1347 78.8758 58.6545C76.9466 60.3605 74.7595 62.2933 70.4931 62.2933C66.2266 62.2933 64.0411 60.3605 62.1119 58.6545C60.3916 57.1347 58.9064 55.8206 55.8526 55.8206C52.8004 55.8206 51.3151 57.1347 49.5948 58.6545C47.6656 60.3605 45.4785 62.2933 41.212 62.2933C36.9455 62.2933 34.7585 60.3605 32.8292 58.6545C31.1089 57.1347 29.6237 55.8206 26.5683 55.8206C23.5145 55.8206 22.0292 57.1347 20.3089 58.6545C18.3797 60.3605 16.1926 62.2933 11.9245 62.2933C10.387 62.2933 9.12526 62.0354 8.04313 61.6354C8.45443 60.6315 8.87723 59.6324 9.31627 58.6431C10.0573 58.8994 10.8979 59.0578 11.9245 59.0578C14.9783 59.0578 16.4651 57.7437 18.1838 56.2238C20.1146 54.5179 22.3002 52.585 26.5683 52.585C30.8364 52.585 33.0234 54.5179 34.9526 56.2238C36.6729 57.7437 38.1582 59.0578 41.212 59.0578C44.2658 59.0578 45.751 57.7437 47.4697 56.2238C49.3989 54.5179 51.5861 52.585 55.8526 52.585C60.1207 52.585 62.3061 54.5179 64.2354 56.2238C65.9557 57.7437 67.4393 59.0578 70.4931 59.0578C73.5468 59.0578 75.0321 57.7437 76.7524 56.2238C78.6817 54.5179 80.8687 52.585 85.1352 52.585C89.4033 52.585 91.5888 54.5179 93.518 56.2238C95.2383 57.7437 96.7235 59.0578 99.7757 59.0578C102.828 59.0578 104.313 57.7437 106.032 56.2238C107.961 54.5179 110.146 52.585 114.413 52.585C118.679 52.585 120.867 54.5179 122.796 56.2238C124.516 57.7437 126.001 59.0578 129.055 59.0578C132.109 59.0578 133.594 57.7437 135.315 56.2238C137.244 54.5179 139.431 52.585 143.697 52.585C147.964 52.585 150.149 54.5179 152.078 56.2238C153.799 57.7437 155.284 59.0578 158.338 59.0578C161.392 59.0578 162.877 57.7437 164.597 56.2238C166.526 54.5179 168.712 52.585 172.978 52.585C177.246 52.585 179.432 54.5179 181.361 56.2238C183.081 57.7437 184.567 59.0578 187.62 59.0578C190.676 59.0578 192.161 57.7437 193.88 56.2238C195.752 54.5685 197.882 52.7156 201.902 52.6063C202.473 53.7017 203.035 54.8035 203.57 55.9218C203.164 55.8614 202.738 55.8206 202.264 55.8206C199.21 55.8206 197.724 57.1347 196.005 58.6546ZM187.62 49.2662C183.354 49.2662 181.167 47.3317 179.238 45.6274C177.517 44.1059 176.032 42.7934 172.978 42.7934C169.926 42.7934 168.441 44.1059 166.721 45.6274C164.791 47.3333 162.606 49.2662 158.338 49.2662C154.071 49.2662 151.884 47.3317 149.955 45.6274C148.235 44.1059 146.749 42.7934 143.697 42.7934C140.644 42.7934 139.158 44.1059 137.438 45.6274C135.509 47.3317 133.322 49.2662 129.055 49.2662C124.787 49.2662 122.602 47.3333 120.672 45.6274C118.952 44.1059 117.467 42.7934 114.413 42.7934C111.361 42.7934 109.876 44.1059 108.157 45.6274C106.228 47.3317 104.042 49.2662 99.7757 49.2662C95.5092 49.2662 93.3238 47.3333 91.3946 45.6274C89.6743 44.1059 88.189 42.7934 85.1352 42.7934C82.0814 42.7934 80.5961 44.1059 78.8758 45.6274C76.9466 47.3333 74.7595 49.2662 70.4931 49.2662C66.2266 49.2662 64.0411 47.3333 62.1119 45.6274C60.3916 44.1059 58.9064 42.7934 55.8526 42.7934C52.8004 42.7934 51.3151 44.1059 49.5948 45.6274C47.6656 47.3333 45.4785 49.2662 41.212 49.2662C36.9455 49.2662 34.7585 47.3333 32.8292 45.6274C31.1089 44.1059 29.6237 42.7934 26.5683 42.7934C23.5145 42.7934 22.0292 44.1059 20.3089 45.6274C18.755 47.0003 17.0136 48.5038 14.1736 49.0442C15.1513 47.3333 16.1779 45.6551 17.2437 44.0047C17.5571 43.7451 17.8672 43.4758 18.1838 43.1967C20.1146 41.4907 22.3002 39.5579 26.5683 39.5579C30.8364 39.5579 33.0234 41.4907 34.9526 43.1967C36.6729 44.7165 38.1582 46.029 41.212 46.029C44.2658 46.029 45.751 44.7165 47.4697 43.1967C49.3989 41.4907 51.5861 39.5579 55.8526 39.5579C60.1207 39.5579 62.3061 41.4907 64.2354 43.1967C65.9557 44.7165 67.4393 46.029 70.4931 46.029C73.5468 46.029 75.0321 44.7165 76.7524 43.1967C78.6817 41.4907 80.8687 39.5579 85.1352 39.5579C89.4033 39.5579 91.5888 41.4907 93.518 43.1967C95.2383 44.7165 96.7235 46.029 99.7757 46.029C102.828 46.029 104.313 44.7165 106.032 43.1967C107.961 41.4907 110.146 39.5579 114.413 39.5579C118.679 39.5579 120.867 41.4907 122.796 43.1967C124.516 44.7165 126.001 46.029 129.055 46.029C132.109 46.029 133.594 44.7165 135.315 43.1967C137.244 41.4907 139.431 39.5579 143.697 39.5579C147.964 39.5579 150.149 41.4907 152.078 43.1967C153.799 44.7165 155.284 46.029 158.338 46.029C161.392 46.029 162.877 44.7165 164.597 43.1967C166.526 41.4907 168.712 39.5579 172.978 39.5579C177.246 39.5579 179.432 41.4907 181.361 43.1967C183.081 44.7165 184.567 46.029 187.62 46.029C190.676 46.029 192.161 44.7165 193.88 43.1967C194.382 42.7526 194.903 42.2955 195.473 41.8597C196.078 42.751 196.677 43.6488 197.258 44.5598C196.836 44.8928 196.428 45.2519 196.005 45.6274C194.076 47.3333 191.889 49.2662 187.62 49.2662ZM179.238 32.6003C177.517 31.0804 176.032 29.7663 172.978 29.7663C169.926 29.7663 168.441 31.0804 166.721 32.6003C164.791 34.3062 162.606 36.2391 158.338 36.2391C154.071 36.2391 151.884 34.3062 149.955 32.6003C148.235 31.0804 146.749 29.7663 143.697 29.7663C140.644 29.7663 139.158 31.0804 137.438 32.6003C135.509 34.3062 133.322 36.2391 129.055 36.2391C124.787 36.2391 122.602 34.3062 120.672 32.6003C118.952 31.0804 117.467 29.7663 114.413 29.7663C111.361 29.7663 109.876 31.0804 108.157 32.6003C106.228 34.3062 104.042 36.2391 99.7757 36.2391C95.5092 36.2391 93.3238 34.3062 91.3946 32.6003C89.6743 31.0804 88.189 29.7663 85.1352 29.7663C82.0814 29.7663 80.5961 31.0804 78.8758 32.6003C76.9466 34.3062 74.7595 36.2391 70.4931 36.2391C66.2266 36.2391 64.0411 34.3062 62.1119 32.6003C60.3916 31.0804 58.9064 29.7663 55.8526 29.7663C52.8004 29.7663 51.3151 31.0804 49.5948 32.6003C47.6656 34.3062 45.4785 36.2391 41.212 36.2391C36.9455 36.2391 34.7585 34.3062 32.8292 32.6003C31.4256 31.3596 30.1639 30.2707 28.0943 29.9067C28.9153 29.0039 29.7558 28.1158 30.6078 27.2408C32.4489 27.9575 33.7514 29.1084 34.9526 30.1695C36.6729 31.6893 38.1582 33.0035 41.212 33.0035C44.2658 33.0035 45.751 31.6893 47.4697 30.1695C49.3989 28.4635 51.5861 26.5307 55.8526 26.5307C60.1207 26.5307 62.3061 28.4652 64.2354 30.1695C65.9557 31.6893 67.4393 33.0035 70.4931 33.0035C73.5468 33.0035 75.0321 31.6893 76.7524 30.1695C78.6817 28.4636 80.8687 26.5307 85.1352 26.5307C89.4033 26.5307 91.5888 28.4636 93.518 30.1695C95.2383 31.6893 96.7235 33.0035 99.7757 33.0035C102.828 33.0035 104.313 31.6893 106.032 30.1695C107.961 28.4652 110.146 26.5307 114.413 26.5307C118.679 26.5307 120.867 28.4652 122.796 30.1695C124.516 31.6893 126.001 33.0035 129.055 33.0035C132.109 33.0035 133.594 31.6893 135.315 30.1695C137.244 28.4636 139.431 26.5307 143.697 26.5307C147.964 26.5307 150.149 28.4636 152.078 30.1695C153.799 31.6893 155.284 33.0035 158.338 33.0035C161.392 33.0035 162.877 31.6893 164.597 30.1695C166.526 28.4636 168.712 26.5307 172.978 26.5307C177.246 26.5307 179.432 28.4636 181.361 30.1695C183.081 31.6893 184.567 33.0035 187.62 33.0035C188.006 33.0035 188.365 32.9823 188.703 32.9431C189.479 33.8638 190.243 34.7959 190.991 35.7428C190.021 36.0431 188.928 36.2391 187.62 36.2391C183.354 36.2391 181.167 34.3062 179.238 32.6003ZM158.338 23.2119C154.071 23.2119 151.884 21.279 149.955 19.5731C148.235 18.0533 146.749 16.7391 143.697 16.7391C140.644 16.7391 139.158 18.0533 137.438 19.5731C135.509 21.279 133.322 23.2119 129.055 23.2119C124.787 23.2119 122.602 21.279 120.672 19.5731C118.952 18.0533 117.467 16.7391 114.413 16.7391C111.361 16.7391 109.876 18.0533 108.157 19.5731C106.228 21.279 104.042 23.2119 99.7757 23.2119C95.5092 23.2119 93.3238 21.279 91.3946 19.5731C89.6743 18.0533 88.189 16.7391 85.1352 16.7391C82.0814 16.7391 80.5961 18.0533 78.8758 19.5731C76.9466 21.279 74.7595 23.2119 70.4931 23.2119C66.2266 23.2119 64.0411 21.279 62.1119 19.5731C60.3916 18.0533 58.9064 16.7391 55.8526 16.7391C52.8004 16.7391 51.3151 18.0533 49.5948 19.5731C47.6656 21.279 45.4785 23.2119 41.212 23.2119C39.0461 23.2119 37.4205 22.7123 36.087 21.9989C36.988 21.1958 37.8987 20.404 38.8241 19.6319C39.5129 19.8441 40.2849 19.9763 41.212 19.9763C44.2658 19.9763 45.751 18.6622 47.4697 17.1424C49.3989 15.4364 51.5861 13.5036 55.8526 13.5036C60.1207 13.5036 62.3061 15.4364 64.2354 17.1424C65.9557 18.6622 67.4393 19.9763 70.4931 19.9763C73.5468 19.9763 75.0321 18.6622 76.7524 17.1424C78.6817 15.4364 80.8687 13.5036 85.1352 13.5036C89.4033 13.5036 91.5888 15.4364 93.518 17.1424C95.2383 18.6622 96.7235 19.9763 99.7757 19.9763C102.828 19.9763 104.313 18.6622 106.032 17.1424C107.961 15.4364 110.146 13.5036 114.413 13.5036C118.679 13.5036 120.867 15.4364 122.796 17.1424C124.516 18.6622 126.001 19.9763 129.055 19.9763C132.109 19.9763 133.594 18.6622 135.315 17.1424C137.244 15.4364 139.431 13.5036 143.697 13.5036C147.964 13.5036 150.149 15.4364 152.078 17.1424C153.799 18.6622 155.284 19.9763 158.338 19.9763C161.392 19.9763 162.877 18.6622 164.597 17.1424C165.699 16.1678 166.898 15.1312 168.508 14.4113C169.616 15.1932 170.708 15.998 171.784 16.8208C169.51 17.1195 168.199 18.2671 166.721 19.5731C164.791 21.279 162.606 23.2119 158.338 23.2119ZM149.955 6.54598C148.235 5.02616 146.749 3.71198 143.697 3.71198C140.644 3.71198 139.158 5.02616 137.438 6.54598C135.509 8.25193 133.322 10.1847 129.055 10.1847C124.787 10.1847 122.602 8.25193 120.672 6.54598C118.952 5.02616 117.467 3.71198 114.413 3.71198C111.361 3.71198 109.876 5.02616 108.157 6.54598C106.228 8.25193 104.042 10.1847 99.7757 10.1847C95.5092 10.1847 93.3238 8.25193 91.3946 6.54598C89.6743 5.02616 88.189 3.71198 85.1352 3.71198C82.0814 3.71198 80.5961 5.02616 78.8758 6.54598C76.9466 8.25193 74.7595 10.1847 70.4931 10.1847C66.2266 10.1847 64.0411 8.25192 62.1119 6.54598C61.6777 6.16399 61.2599 5.79505 60.829 5.45549C61.8964 4.93962 62.977 4.4466 64.0656 3.96665C64.1211 4.01563 64.1799 4.06623 64.2354 4.11521C65.9557 5.63504 67.4393 6.94918 70.4931 6.94918C73.5468 6.94918 75.0321 5.63504 76.7524 4.11521C78.6817 2.40927 80.8687 0.476414 85.1352 0.476414C89.4033 0.476414 91.5888 2.40928 93.518 4.11521C95.2383 5.63505 96.7235 6.94918 99.7757 6.94918C102.828 6.94918 104.313 5.63505 106.032 4.11521C107.961 2.40928 110.146 0.476416 114.413 0.476416C118.679 0.476417 120.867 2.40928 122.796 4.11521C124.516 5.63505 126.001 6.94918 129.055 6.94918C132.109 6.94918 133.594 5.63505 135.315 4.11521C136.904 2.70965 138.688 1.16697 141.647 0.660898C148.573 3.03779 155.175 6.11172 161.379 9.79132C160.491 10.0346 159.497 10.1847 158.338 10.1847C154.071 10.1847 151.884 8.25193 149.955 6.54598Z" fill="white"/>
</svg>
