<svg width="370" height="607" viewBox="0 0 370 607" fill="none" xmlns="http://www.w3.org/2000/svg">
<path d="M126.69 606.618C206.168 589.902 275.75 542.299 320.13 474.28C364.51 406.261 380.052 323.399 363.337 243.921C346.621 164.443 299.018 94.86 230.999 50.4801C162.98 6.1002 80.1173 -9.44162 0.639359 7.27367L8.78706 46.0144C77.9904 31.46 150.141 44.9926 209.367 83.6352C268.592 122.278 310.041 182.865 324.596 252.068C339.15 321.272 325.618 393.422 286.975 452.648C248.332 511.874 187.745 553.323 118.542 567.877L126.69 606.618Z" fill="url(#paint0_linear_2_12250)"/>
<defs>
<linearGradient id="paint0_linear_2_12250" x1="63.6645" y1="0.717865" x2="63.6645" y2="613.174" gradientUnits="userSpaceOnUse">
<stop stop-color="#0A6847" stop-opacity="0"/>
<stop offset="1" stop-color="#0A6847"/>
</linearGradient>
</defs>
</svg>
