<svg width="594" height="594" viewBox="0 0 594 594" fill="none" xmlns="http://www.w3.org/2000/svg">
<path d="M492.174 593.842C557.338 528.678 593.947 440.296 593.947 348.141C593.947 255.985 557.338 167.604 492.174 102.44C427.011 37.2759 338.629 0.667222 246.474 0.667206C154.318 0.667189 65.9367 37.2759 0.772797 102.44L22.6978 124.365C82.0469 65.0158 162.541 31.6739 246.474 31.6739C330.406 31.6739 410.9 65.0159 470.249 124.365C529.598 183.714 562.94 264.208 562.94 348.141C562.94 432.073 529.598 512.567 470.249 571.916L492.174 593.842Z" fill="url(#paint0_linear_2_12251)"/>
<defs>
<linearGradient id="paint0_linear_2_12251" x1="246.474" y1="0.667206" x2="268.565" y2="712.352" gradientUnits="userSpaceOnUse">
<stop stop-color="#0A6847" stop-opacity="0"/>
<stop offset="1" stop-color="#0A6847"/>
</linearGradient>
</defs>
</svg>
