<svg width="155" height="40" viewBox="0 0 155 40" fill="none" xmlns="http://www.w3.org/2000/svg">
<g clip-path="url(#clip0_2_12206)">
<path d="M36.8903 3.08344C32.7767 -1.02789 26.0855 -1.02789 21.9719 3.08344L13.2746 11.7808L23.1491 21.6553C25.1815 19.9629 27.7581 18.9032 30.6032 18.9032C32.2351 18.9032 33.788 19.2422 35.2009 19.8475L36.8903 18.0019C41.0027 13.8894 41.0027 7.19711 36.8903 3.08344Z" fill="#0A6847"/>
<path d="M21.5055 23.3263L11.6172 13.4381L3.10485 21.9588C-1.00757 26.0713 -1.00757 32.7636 3.10485 36.8772C7.21837 40.9883 13.9877 41.0667 18.1013 36.9552L19.827 35.2213C19.2217 33.8084 18.8827 32.2555 18.8827 30.6236C18.8827 27.8516 19.8906 25.3352 21.5055 23.3263Z" fill="#0A6847"/>
<path d="M21.2268 30.6237C21.2268 35.4005 24.8122 39.2991 29.4311 39.8818V21.3655C24.8122 21.9482 21.2268 25.8466 21.2268 30.6237Z" fill="#0A6847"/>
<path d="M31.7751 21.3655V39.8818C36.3941 39.2991 39.9794 35.4005 39.9794 30.6236C39.9794 25.8466 36.3941 21.9482 31.7751 21.3655Z" fill="#0A6847"/>
</g>
<path d="M57.62 19.29L56.36 30H51.02L54.41 7.95L63.35 20.76L72.32 7.95L75.71 30H70.37L69.11 19.29L63.35 28.05L57.62 19.29ZM84.9687 30.3C83.3687 30.3 81.9787 30.01 80.7987 29.43C79.6387 28.83 78.7387 27.99 78.0987 26.91C77.4587 25.83 77.1387 24.56 77.1387 23.1C77.1387 21.62 77.4487 20.34 78.0687 19.26C78.6887 18.18 79.5787 17.35 80.7387 16.77C81.9187 16.19 83.3087 15.9 84.9087 15.9C86.5087 15.9 87.8587 16.18 88.9587 16.74C90.0588 17.28 90.8988 18.07 91.4788 19.11C92.0588 20.15 92.3488 21.41 92.3488 22.89C92.3488 23.11 92.3488 23.33 92.3488 23.55C92.3488 23.75 92.3287 23.92 92.2887 24.06H79.6887V21.54H88.2087L87.1287 22.92C87.2287 22.78 87.3087 22.61 87.3687 22.41C87.4487 22.19 87.4887 22.01 87.4887 21.87C87.4887 21.27 87.3787 20.75 87.1587 20.31C86.9387 19.87 86.6287 19.53 86.2287 19.29C85.8287 19.05 85.3587 18.93 84.8187 18.93C84.1387 18.93 83.5687 19.08 83.1087 19.38C82.6487 19.68 82.2987 20.14 82.0587 20.76C81.8387 21.36 81.7187 22.12 81.6987 23.04C81.6987 23.88 81.8187 24.6 82.0587 25.2C82.2987 25.8 82.6587 26.26 83.1387 26.58C83.6187 26.88 84.2087 27.03 84.9087 27.03C85.7087 27.03 86.3887 26.88 86.9487 26.58C87.5287 26.28 87.9887 25.83 88.3288 25.23L92.3787 26.22C91.6587 27.58 90.6787 28.6 89.4388 29.28C88.2187 29.96 86.7287 30.3 84.9687 30.3ZM105.076 6.6H109.606V30H105.076V6.6ZM93.796 23.1C93.796 21.54 94.106 20.23 94.726 19.17C95.366 18.11 96.186 17.3 97.186 16.74C98.186 16.18 99.246 15.9 100.366 15.9C101.526 15.9 102.546 16.19 103.426 16.77C104.326 17.35 105.036 18.18 105.556 19.26C106.076 20.32 106.336 21.6 106.336 23.1C106.336 24.58 106.076 25.86 105.556 26.94C105.036 28.02 104.326 28.85 103.426 29.43C102.546 30.01 101.526 30.3 100.366 30.3C99.246 30.3 98.186 30.02 97.186 29.46C96.186 28.9 95.366 28.09 94.726 27.03C94.106 25.95 93.796 24.64 93.796 23.1ZM98.566 23.1C98.566 23.82 98.716 24.45 99.016 24.99C99.316 25.51 99.716 25.92 100.216 26.22C100.716 26.5 101.266 26.64 101.866 26.64C102.386 26.64 102.886 26.5 103.366 26.22C103.866 25.94 104.276 25.54 104.596 25.02C104.916 24.48 105.076 23.84 105.076 23.1C105.076 22.36 104.916 21.73 104.596 21.21C104.276 20.67 103.866 20.26 103.366 19.98C102.886 19.7 102.386 19.56 101.866 19.56C101.266 19.56 100.716 19.71 100.216 20.01C99.716 20.29 99.316 20.7 99.016 21.24C98.716 21.76 98.566 22.38 98.566 23.1ZM112.312 11.01C112.312 10.29 112.572 9.71 113.092 9.27C113.612 8.81 114.232 8.58 114.952 8.58C115.692 8.58 116.312 8.81 116.812 9.27C117.332 9.71 117.592 10.29 117.592 11.01C117.592 11.73 117.332 12.32 116.812 12.78C116.312 13.24 115.692 13.47 114.952 13.47C114.232 13.47 113.612 13.24 113.092 12.78C112.572 12.32 112.312 11.73 112.312 11.01ZM112.762 16.2H117.142V30H112.762V16.2ZM120.333 6.6H124.893V30H120.333V6.6ZM131.389 25.68C131.389 26.04 131.479 26.35 131.659 26.61C131.839 26.85 132.079 27.04 132.379 27.18C132.679 27.3 133.009 27.36 133.369 27.36C133.889 27.36 134.369 27.25 134.809 27.03C135.249 26.81 135.609 26.48 135.889 26.04C136.169 25.6 136.309 25.06 136.309 24.42L136.789 26.22C136.789 27.1 136.549 27.85 136.069 28.47C135.589 29.07 134.969 29.53 134.209 29.85C133.449 30.15 132.629 30.3 131.749 30.3C130.869 30.3 130.049 30.14 129.289 29.82C128.549 29.48 127.949 28.98 127.489 28.32C127.049 27.66 126.829 26.86 126.829 25.92C126.829 24.6 127.299 23.56 128.239 22.8C129.179 22.02 130.509 21.63 132.229 21.63C133.069 21.63 133.819 21.71 134.479 21.87C135.159 22.03 135.739 22.23 136.219 22.47C136.699 22.71 137.059 22.96 137.299 23.22V25.23C136.819 24.87 136.259 24.6 135.619 24.42C134.999 24.22 134.339 24.12 133.639 24.12C133.099 24.12 132.669 24.18 132.349 24.3C132.029 24.42 131.789 24.6 131.629 24.84C131.469 25.06 131.389 25.34 131.389 25.68ZM129.379 20.43L127.849 17.4C128.629 17.02 129.569 16.66 130.669 16.32C131.769 15.98 132.969 15.81 134.269 15.81C135.489 15.81 136.579 15.99 137.539 16.35C138.499 16.69 139.259 17.19 139.819 17.85C140.379 18.51 140.659 19.32 140.659 20.28V30H136.309V21.3C136.309 20.96 136.249 20.67 136.129 20.43C136.029 20.17 135.869 19.95 135.649 19.77C135.429 19.59 135.149 19.46 134.809 19.38C134.489 19.3 134.119 19.26 133.699 19.26C133.079 19.26 132.469 19.33 131.869 19.47C131.289 19.61 130.779 19.78 130.339 19.98C129.899 20.16 129.579 20.31 129.379 20.43ZM147.98 16.2V30H143.51V16.2H147.98ZM151.97 20.88C151.73 20.64 151.47 20.45 151.19 20.31C150.93 20.17 150.6 20.1 150.2 20.1C149.76 20.1 149.37 20.22 149.03 20.46C148.69 20.7 148.43 21.05 148.25 21.51C148.07 21.97 147.98 22.53 147.98 23.19L146.9 21.6C146.9 20.5 147.11 19.52 147.53 18.66C147.97 17.8 148.54 17.12 149.24 16.62C149.94 16.12 150.67 15.87 151.43 15.87C151.93 15.87 152.41 15.97 152.87 16.17C153.33 16.37 153.68 16.65 153.92 17.01L151.97 20.88Z" fill="#181818"/>
<defs>
<clipPath id="clip0_2_12206">
<rect width="40" height="40" fill="white"/>
</clipPath>
</defs>
</svg>
