<svg width="110" height="110" viewBox="0 0 110 110" fill="none" xmlns="http://www.w3.org/2000/svg">
<circle cx="55" cy="55" r="55" fill="#0A6847"/>
<path d="M70.8021 29.3034C74.6151 29.3076 78.2707 30.8242 80.9669 33.5204C83.6631 36.2165 85.1796 39.8722 85.1838 43.6851V43.7572C85.1838 43.8046 85.19 43.8757 85.1952 43.9697C85.4904 49.1926 84.6366 63.294 70.3691 81.3632C70.2406 81.5255 70.0589 81.6371 69.8561 81.6785C69.6533 81.7199 69.4424 81.6884 69.2606 81.5894C69.0788 81.4905 68.9377 81.3305 68.8624 81.1377C68.787 80.945 68.7821 80.7318 68.8486 80.5357C68.889 80.4163 72.7881 68.7365 70.124 58.0492C66.3716 57.8732 62.8371 56.2359 60.2762 53.4875C57.7153 50.7392 56.3315 47.0979 56.4205 43.3425C56.5096 39.587 58.0645 36.0154 60.7527 33.3915C63.4409 30.7677 67.0491 29.2997 70.8056 29.3017L70.8021 29.3034ZM83.4271 43.6351C83.4173 41.1402 82.6686 38.7042 81.2755 36.6345C79.8824 34.5648 77.9072 32.9543 75.5995 32.0063C73.2917 31.0583 70.7549 30.8153 68.3091 31.3079C65.8634 31.8006 63.6184 33.0069 61.8577 34.7744C60.097 36.542 58.8995 38.7916 58.4163 41.2393C57.9331 43.6869 58.186 46.2229 59.143 48.5269C60.1 50.8309 61.7181 52.7998 63.7932 54.1849C65.8683 55.57 68.3072 56.3092 70.8021 56.3092C70.9945 56.3092 71.1815 56.3724 71.3345 56.4891C71.4874 56.6057 71.5979 56.7693 71.6489 56.9548C73.6692 64.3068 72.6783 72.019 71.6744 76.699C82.9914 60.846 83.702 48.7455 83.4376 44.0681C83.4257 43.9241 83.4221 43.7795 83.4271 43.6351ZM38.1387 29.3034C41.9517 29.3076 45.6073 30.8242 48.3035 33.5204C50.9997 36.2165 52.5162 39.8722 52.5204 43.6851V43.7572C52.5204 43.8046 52.5266 43.8757 52.5319 43.9697C52.827 49.1926 51.9732 63.294 37.7057 81.3632C37.5772 81.5255 37.3955 81.6371 37.1927 81.6785C36.9899 81.7199 36.779 81.6884 36.5972 81.5894C36.4154 81.4905 36.2743 81.3305 36.199 81.1377C36.1236 80.945 36.1187 80.7318 36.1852 80.5357C36.2256 80.4163 40.1248 68.7365 37.4606 58.0492C33.7082 57.8732 30.1737 56.2359 27.6128 53.4875C25.052 50.7392 23.6681 47.0979 23.7571 43.3425C23.8462 39.587 25.4011 36.0154 28.0893 33.3915C30.7776 30.7677 34.3857 29.2997 38.1423 29.3017L38.1387 29.3034ZM50.7637 43.6351C50.754 41.1402 50.0053 38.7042 48.6121 36.6345C47.219 34.5648 45.2439 32.9543 42.9361 32.0063C40.6284 31.0583 38.0915 30.8153 35.6457 31.3079C33.2 31.8006 30.955 33.0069 29.1943 34.7744C27.4336 36.542 26.2361 38.7916 25.7529 41.2393C25.2698 43.6869 25.5226 46.2229 26.4796 48.5269C27.4366 50.8309 29.0548 52.7998 31.1298 54.1849C33.2049 55.57 35.6439 56.3092 38.1387 56.3092C38.3311 56.3092 38.5181 56.3724 38.6711 56.4891C38.8241 56.6057 38.9345 56.7693 38.9855 56.9548C41.0058 64.3068 40.015 72.019 39.011 76.699C50.328 60.846 51.0395 48.7455 50.7751 44.0681C50.7629 43.9241 50.7591 43.7795 50.7637 43.6351Z" fill="white"/>
</svg>
